HIERARCHY
ROOT Hips
{
	OFFSET 0.000000 89.005402 0.000000
	CHANNELS 6 Xposition Yposition Zposition Xrotation Yrotation Zrotation
	JOINT Spine
	{
		OFFSET 0.116900 10.681000 0.373400
		CHANNELS 3 Xrotation Yrotation Zrotation
		JOINT Spine1
		{
			OFFSET 0.000000 13.840401 0.053500
			CHANNELS 3 Xrotation Yrotation Zrotation
			JOINT Spine2
			{
				OFFSET 0.000000 14.712700 -0.366200
				CHANNELS 3 Xrotation Yrotation Zrotation
				JOINT Neck
				{
					OFFSET 0.000000 35.415497 -3.314200
					CHANNELS 3 Xrotation Yrotation Zrotation
					JOINT Head
					{
						OFFSET 0.000000 16.899200 1.218300
						CHANNELS 3 Xrotation Yrotation Zrotation
						JOINT HeadTop_End
						{
							OFFSET 0.000000 22.206207 2.192500
							CHANNELS 3 Xrotation Yrotation Zrotation
							End Site
							{
								OFFSET 0.000000 22.314178 0.000000
							}
						}
					}
				}
				JOINT LeftShoulder
				{
					OFFSET 12.896400 26.716293 -4.548400
					CHANNELS 3 Xrotation Yrotation Zrotation
					JOINT LeftArm
					{
						OFFSET 19.027000 -4.857010 -1.718400
						CHANNELS 3 Xrotation Yrotation Zrotation
						JOINT LeftForeArm
						{
							OFFSET 24.179897 0.000000 0.000000
							CHANNELS 3 Xrotation Yrotation Zrotation
							JOINT LeftHand
							{
								OFFSET 27.156403 0.000000 0.000000
								CHANNELS 3 Xrotation Yrotation Zrotation
								JOINT LeftHandIndex1
								{
									OFFSET 16.441200 0.000000 0.000000
									CHANNELS 3 Xrotation Yrotation Zrotation
									JOINT LeftHandIndex2
									{
										OFFSET 4.821899 0.000000 0.000000
										CHANNELS 3 Xrotation Yrotation Zrotation
										JOINT LeftHandIndex3
										{
											OFFSET 6.386497 0.000000 0.000000
											CHANNELS 3 Xrotation Yrotation Zrotation
											JOINT LeftHandIndex4
											{
												OFFSET 5.188988 0.000000 0.000000
												CHANNELS 3 Xrotation Yrotation Zrotation
												End Site
												{
													OFFSET -0.178703 5.185913 0.000177
												}
											}
										}
									}
								}
								JOINT LeftHandThumb1
								{
									OFFSET 6.534897 -5.032593 5.900300
									CHANNELS 3 Xrotation Yrotation Zrotation
									JOINT LeftHandThumb2
									{
										OFFSET 3.818176 -2.204422 2.204423
										CHANNELS 3 Xrotation Yrotation Zrotation
										JOINT LeftHandThumb3
										{
											OFFSET 3.252098 -1.877594 1.877601
											CHANNELS 3 Xrotation Yrotation Zrotation
											JOINT LeftHandThumb4
											{
												OFFSET 5.251778 -3.032120 3.032117
												CHANNELS 3 Xrotation Yrotation Zrotation
												End Site
												{
													OFFSET 0.000023 6.780014 0.000000
												}
											}
										}
									}
								}
							}
						}
					}
				}
				JOINT RightShoulder
				{
					OFFSET -12.896300 26.716293 -4.548400
					CHANNELS 3 Xrotation Yrotation Zrotation
					JOINT RightArm
					{
						OFFSET -19.027000 -4.857010 -1.718400
						CHANNELS 3 Xrotation Yrotation Zrotation
						JOINT RightForeArm
						{
							OFFSET -24.179897 0.000000 0.000000
							CHANNELS 3 Xrotation Yrotation Zrotation
							JOINT RightHand
							{
								OFFSET -27.156403 0.000000 0.000000
								CHANNELS 3 Xrotation Yrotation Zrotation
								JOINT RightHandThumb1
								{
									OFFSET -6.591202 -4.852203 5.988100
									CHANNELS 3 Xrotation Yrotation Zrotation
									JOINT RightHandThumb2
									{
										OFFSET -3.818176 -2.204422 2.204423
										CHANNELS 3 Xrotation Yrotation Zrotation
										JOINT RightHandThumb3
										{
											OFFSET -3.252098 -1.877594 1.877601
											CHANNELS 3 Xrotation Yrotation Zrotation
											JOINT RightHandThumb4
											{
												OFFSET -5.251778 -3.032120 3.032117
												CHANNELS 3 Xrotation Yrotation Zrotation
												End Site
												{
													OFFSET -0.000023 6.780014 0.000000
												}
											}
										}
									}
								}
								JOINT RightHandIndex1
								{
									OFFSET -16.029404 0.000000 0.000000
									CHANNELS 3 Xrotation Yrotation Zrotation
									JOINT RightHandIndex2
									{
										OFFSET -5.213303 0.000000 0.000000
										CHANNELS 3 Xrotation Yrotation Zrotation
										JOINT RightHandIndex3
										{
											OFFSET -6.386528 0.000000 0.000000
											CHANNELS 3 Xrotation Yrotation Zrotation
											JOINT RightHandIndex4
											{
												OFFSET -5.189026 0.000000 0.000000
												CHANNELS 3 Xrotation Yrotation Zrotation
												End Site
												{
													OFFSET 0.236702 5.183624 0.001972
												}
											}
										}
									}
								}
							}
						}
					}
				}
			}
		}
	}
	JOINT LeftUpLeg
	{
		OFFSET 14.073000 -7.904099 -1.463000
		CHANNELS 3 Xrotation Yrotation Zrotation
		JOINT LeftLeg
		{
			OFFSET -0.109806 -34.073280 4.093200
			CHANNELS 3 Xrotation Yrotation Zrotation
			JOINT LeftFoot
			{
				OFFSET 0.109806 -29.899420 -6.319000
				CHANNELS 3 Xrotation Yrotation Zrotation
				JOINT LeftToeBase
				{
					OFFSET 1.551100 -14.988700 20.535801
					CHANNELS 3 Xrotation Yrotation Zrotation
					JOINT LeftToe_End
					{
						OFFSET 0.221200 0.570800 13.248301
						CHANNELS 3 Xrotation Yrotation Zrotation
						End Site
						{
							OFFSET 0.000000 13.262435 0.000000
						}
					}
				}
			}
		}
	}
	JOINT RightUpLeg
	{
		OFFSET -13.839300 -7.904099 -1.463000
		CHANNELS 3 Xrotation Yrotation Zrotation
		JOINT RightLeg
		{
			OFFSET 0.109694 -34.073219 4.093300
			CHANNELS 3 Xrotation Yrotation Zrotation
			JOINT RightFoot
			{
				OFFSET -0.109694 -29.899384 -6.319200
				CHANNELS 3 Xrotation Yrotation Zrotation
				JOINT RightToeBase
				{
					OFFSET -1.551100 -14.988700 20.535801
					CHANNELS 3 Xrotation Yrotation Zrotation
					JOINT RightToe_End
					{
						OFFSET -0.221200 0.570900 13.248299
						CHANNELS 3 Xrotation Yrotation Zrotation
						End Site
						{
							OFFSET 0.000000 13.262440 0.000000
						}
					}
				}
			}
		}
	}
}
MOTION
Frames: 9
Frame Time: 0.033333
-0.714449 80.925629 40.928005 10.279967 -5.197940 0.085623 5.319905 0.148835 -1.229414 2.188030 -0.566219 -0.158979 0.272736 -0.972616 0.898067 12.585920 -0.308784 2.188555 -30.323014 0.842206 -5.312839 0.000000 0.000000 0.000000 5.876923 -7.979695 20.002223 -34.254669 -16.965585 -14.997634 0.000006 -124.447522 0.000010 -1.398396 -13.673596 39.579522 3.052573 -0.236014 -15.996346 0.004175 0.221371 -2.160731 1.078586 3.388953 -35.300286 -0.000001 0.000000 -0.000001 28.620011 -24.676666 7.683735 13.196503 30.099380 -41.312051 -17.405870 27.733901 25.698870 -0.000000 -0.000000 0.000001 -1.569644 -8.377660 -14.965264 -29.516123 36.059932 26.253343 0.000003 121.356356 -0.000006 1.490556 12.183668 -43.921190 27.217056 26.328180 -7.221393 12.620645 -31.646418 39.727727 -15.731346 -33.858146 -24.893297 -0.000002 0.000000 -0.000001 3.344716 0.259455 17.143657 0.003478 -0.180149 2.211964 0.860065 -2.698507 35.350754 0.000000 -0.000000 0.000001 -28.785002 5.813053 16.955593 36.781627 7.350756 0.103162 -16.743860 -2.352911 -15.514607 -0.109848 -0.000003 -0.000000 0.000000 0.000001 0.000000 -33.383137 -2.514942 -6.539727 38.356464 1.782490 -4.200407 -13.806862 -12.324466 10.103876 1.031096 -0.000012 0.000003 0.000000 0.000001 -0.000000 
-0.808376 82.293877 41.590736 10.795036 -4.829044 0.076971 5.077644 0.141284 -1.180031 1.666088 -0.571976 -0.208916 -0.559321 -0.968293 0.843851 12.301272 -0.295254 2.357714 -29.149550 0.800222 -5.276036 -0.000000 0.000000 -0.000000 5.878846 -8.060528 20.101155 -33.982213 -16.856634 -15.686667 0.000006 -124.387608 0.000009 -3.851813 -13.938194 39.134064 3.081260 -0.191205 -16.120741 0.003525 0.203396 -1.985210 1.076508 3.386023 -35.265138 0.000000 -0.000000 0.000001 28.792621 -24.793646 7.783930 13.167938 30.092973 -41.468916 -17.377191 27.661906 25.629417 0.000002 -0.000001 0.000004 -1.587338 -8.450115 -14.986750 -28.633705 36.187739 26.024558 0.000003 121.147175 -0.000005 -0.032554 14.261426 -43.465285 27.172980 26.344581 -7.200406 12.601720 -31.646937 39.677105 -15.669736 -33.859539 -24.791297 -0.000003 -0.000000 0.000000 3.366419 0.236504 17.265620 0.003551 -0.182016 2.234961 0.860521 -2.699143 35.360415 0.000000 -0.000002 -0.000000 -26.398633 6.623869 16.444445 31.164254 7.490269 0.114900 -14.240354 -2.825361 -15.110308 -0.109848 -0.000005 -0.000001 0.000000 0.000000 0.000000 -30.691260 -2.805119 -6.322806 33.111931 1.274446 -4.184047 -11.726040 -12.152923 10.233818 1.011052 0.000007 -0.000000 -0.000000 0.000000 -0.000000 
-0.889570 83.363510 42.067486 11.065008 -4.462478 0.066761 4.914397 0.135450 -1.119781 1.280395 -0.581399 -0.243914 -1.235870 -0.968075 0.803034 12.017587 -0.320258 2.501738 -27.789526 0.599162 -5.297345 0.000000 -0.000000 -0.000000 5.878251 -7.672478 20.103035 -33.468743 -17.978122 -16.110611 -0.000019 -124.031864 -0.000017 -6.302863 -13.635465 40.173868 3.046102 -0.133751 -16.569860 0.007062 0.287897 -2.810536 1.095152 3.412189 -35.579576 -0.000000 0.000000 -0.000000 27.680373 -24.160249 7.865539 12.836457 30.070249 -40.547766 -17.152693 27.875952 25.235042 -0.000001 0.000003 -0.000004 -1.619843 -8.648573 -15.036402 -28.202454 36.406875 26.123061 0.000004 120.435469 -0.000005 -1.114556 16.216536 -42.342808 27.133406 26.360707 -7.184646 12.581902 -31.646725 39.626288 -15.608464 -33.853867 -24.688436 0.000002 -0.000000 0.000002 3.387713 0.214441 17.377762 0.003567 -0.182499 2.240826 0.860420 -2.699002 35.358209 0.000000 -0.000004 0.000001 -24.243586 7.310032 16.001041 26.296534 7.583028 0.113605 -11.979772 -3.291749 -14.758854 -0.109846 0.000002 0.000002 -0.000000 -0.000001 0.000000 -28.317848 -3.054417 -6.162374 28.672291 0.823973 -4.168032 -9.898758 -11.994792 10.306294 0.991008 -0.000002 0.000002 -0.000000 -0.000002 -0.000000 
-0.951362 84.130302 42.334007 11.039377 -4.167910 0.065224 4.835613 0.130971 -1.052820 1.041134 -0.598518 -0.274372 -1.744796 -0.975783 0.764702 11.863105 -0.362429 2.602117 -26.302198 0.317050 -5.304088 -0.000000 0.000000 -0.000000 5.849449 -6.585280 19.920834 -32.533533 -20.318833 -16.382501 0.000008 -123.840386 0.000005 -8.507989 -12.938021 42.425881 2.861047 -0.059463 -17.699995 0.031352 0.605947 -5.923786 1.162254 3.503919 -36.692022 -0.000000 -0.000000 0.000001 23.467099 -21.778961 7.384893 11.876577 30.279523 -37.220105 -16.530697 28.669644 24.205309 -0.000001 -0.000006 0.000005 -1.670310 -8.903711 -15.179139 -28.256419 36.425150 26.965481 0.000003 119.901280 -0.000006 -3.186969 18.716952 -39.500507 27.114161 26.378158 -7.189445 12.558038 -31.643167 39.574656 -15.549641 -33.815184 -24.583794 -0.000000 0.000000 -0.000001 3.406734 0.196209 17.445046 0.003337 -0.176437 2.166409 0.858235 -2.695921 35.311812 0.000000 -0.000001 -0.000000 -22.393912 7.863752 15.645955 22.488225 7.637095 0.101354 -10.135751 -3.693654 -14.474441 -0.109850 -0.000000 -0.000002 0.000000 0.000001 0.000000 -26.363646 -3.264890 -6.070270 25.307787 0.510448 -4.147749 -8.451912 -11.862706 10.319129 0.970962 0.000005 -0.000002 -0.000000 0.000000 -0.000000 
-0.997859 84.630157 42.388382 10.866326 -3.956144 0.063316 4.828442 0.126229 -0.984766 0.927521 -0.624166 -0.296080 -2.104699 -0.992649 0.733137 11.862735 -0.399619 2.654987 -24.817665 0.051179 -5.258241 0.000000 -0.000000 -0.000000 5.806723 -4.919178 19.528566 -30.961869 -23.198186 -16.689333 0.000005 -124.445377 0.000009 -11.031260 -11.908187 44.742773 2.489380 0.046989 -19.667467 0.126526 1.212236 -11.916881 1.295313 3.675409 -38.816996 -0.000001 -0.000000 0.000002 15.262951 -17.289731 5.723104 10.114434 30.995310 -31.009831 -15.456161 30.080512 22.527330 0.000002 0.000002 -0.000000 -1.715440 -9.041384 -15.338110 -28.143759 35.816395 28.399035 0.000003 120.469265 -0.000007 -7.860574 21.463280 -34.126859 27.096930 26.396830 -7.194904 12.534310 -31.639601 39.523303 -15.491351 -33.772540 -24.480250 0.000001 0.000000 -0.000001 3.425518 0.178473 17.508241 0.003084 -0.169681 2.083388 0.855927 -2.692662 35.262723 -0.000000 -0.000000 0.000000 -21.062540 8.248545 15.407209 19.849527 7.671700 0.082711 -8.753338 -4.013102 -14.258878 -0.109847 -0.000001 -0.000000 0.000000 0.000001 0.000000 -24.987597 -3.411575 -6.014307 23.032038 0.302659 -4.120487 -7.380527 -11.761531 10.292777 0.950920 -0.000016 -0.000002 -0.000000 -0.000000 -0.000000 
-1.037444 84.878052 42.221336 10.712156 -3.791362 0.058506 4.864134 0.121666 -0.916327 0.890606 -0.654734 -0.297253 -2.362434 -1.015908 0.720725 11.958708 -0.426059 2.673405 -23.458244 -0.146794 -5.201979 -0.000000 0.000000 0.000000 5.797814 -3.187907 18.901191 -28.656455 -25.897868 -17.247382 -0.000013 -125.737758 -0.000013 -15.383715 -10.842702 45.616521 1.982856 0.205092 -22.259073 0.357312 2.016460 -20.094785 1.487447 3.901702 -41.724178 -0.000000 -0.000000 0.000000 4.174075 -11.198035 2.736618 7.885039 32.092603 -22.927540 -14.096696 31.858772 20.555453 -0.000003 0.000002 -0.000000 -1.711356 -8.942821 -15.274876 -26.810239 34.558404 29.485561 0.000002 122.236262 -0.000006 -15.391010 22.653272 -26.691046 26.997955 26.410465 -7.116557 12.532052 -31.653248 39.477530 -15.422547 -33.859734 -24.384954 0.000001 0.000001 -0.000003 3.453626 0.146301 17.750524 0.003822 -0.188914 2.319723 0.862019 -2.701258 35.392217 0.000003 -0.000002 0.000001 -20.513594 8.413445 15.303500 18.503281 7.691372 0.065920 -7.863401 -4.257468 -14.115248 -0.109847 0.000006 0.000001 0.000000 -0.000000 -0.000000 -24.385298 -3.456065 -5.981100 21.896302 0.124124 -4.085589 -6.694867 -11.696584 10.246067 0.930878 0.000010 -0.000001 0.000000 -0.000000 -0.000000 
-1.072493 84.895912 41.830929 10.623325 -3.632885 0.054118 4.909629 0.121654 -0.848385 0.872286 -0.676996 -0.273522 -2.574134 -1.032789 0.732785 12.099211 -0.447353 2.691808 -22.231982 -0.277936 -5.198979 -0.000000 -0.000000 0.000000 5.888550 -2.128575 17.942731 -25.750810 -27.962678 -18.310945 0.000013 -126.568309 0.000013 -22.682124 -10.416531 44.216234 1.456475 0.412186 -24.989145 0.726629 2.827803 -28.816606 1.706679 4.133865 -44.852343 -0.000000 -0.000000 0.000000 -7.160669 -4.293966 -1.121510 5.613632 33.392218 -14.902093 -12.824191 33.640983 18.902943 -0.000002 -0.000001 0.000000 -1.637701 -8.625350 -14.895698 -23.651371 33.215900 29.446943 0.000003 124.185680 -0.000002 -24.027079 20.898036 -19.321446 26.696295 26.405016 -6.835366 12.582490 -31.709484 39.444971 -15.329770 -34.269149 -24.303948 -0.000000 0.000001 0.000001 3.505377 0.079363 18.430927 0.007959 -0.272339 3.345067 0.888866 -2.738612 35.957978 -0.000003 -0.000000 0.000002 -20.810767 8.351122 15.322541 18.430460 7.688482 0.057897 -7.440462 -4.449515 -14.035559 -0.109846 0.000003 0.000003 0.000000 0.000000 0.000000 -24.583147 -3.390613 -5.978952 21.871565 -0.072988 -4.044702 -6.379384 -11.668188 10.192983 0.910831 0.000011 -0.000002 0.000000 0.000001 -0.000000 
-1.101685 84.778900 41.277649 10.564377 -3.462835 0.053938 4.938456 0.130080 -0.784007 0.824900 -0.677174 -0.232953 -2.785648 -1.029102 0.762128 12.273329 -0.466005 2.768132 -21.011846 -0.357030 -5.261449 -0.000001 -0.000000 0.000000 6.106441 -2.283357 16.536156 -22.541281 -29.114846 -20.064111 -0.000014 -125.722746 -0.000012 -32.447391 -11.012456 40.767937 1.025098 0.634354 -27.373546 1.145196 3.480954 -36.412012 1.912404 4.330284 -47.639384 -0.000000 0.000002 -0.000002 -16.211592 2.568158 -4.966222 4.593035 34.427510 -8.836792 -11.799551 35.274433 17.749637 0.000001 0.000001 0.000000 -1.530304 -8.131121 -14.606151 -18.999498 32.312334 28.715884 0.000003 125.128902 -0.000004 -32.058859 17.152840 -13.848448 26.108987 26.360015 -6.273241 12.704957 -31.824262 39.429883 -15.190312 -35.129586 -24.237386 0.000001 -0.000000 -0.000000 3.592536 -0.033061 19.719202 0.021300 -0.445554 5.477839 0.945677 -2.815165 37.130534 0.000004 0.000001 -0.000003 -21.626102 8.152195 15.399674 19.093114 7.669481 0.055624 -7.253045 -4.625178 -13.978406 -0.109848 -0.000002 -0.000003 0.000000 -0.000001 0.000000 -25.266516 -3.261890 -6.005993 22.492209 -0.289048 -4.000578 -6.248704 -11.658847 10.142062 0.890787 -0.000004 0.000001 -0.000000 -0.000001 0.000000 
-1.126433 84.668205 40.686962 10.499482 -3.282690 0.063697 4.939992 0.145137 -0.720444 0.726531 -0.657004 -0.183059 -3.016850 -1.006013 0.801342 12.477151 -0.478319 2.934064 -19.660892 -0.387403 -5.348693 0.000000 0.000000 0.000000 6.364177 -3.551118 14.749423 -19.228244 -29.441384 -22.419591 0.000003 -123.134404 0.000003 -42.740582 -12.291923 36.072824 0.752725 0.835012 -29.180511 1.506088 3.922445 -41.997320 2.079966 4.476911 -49.821510 0.000001 -0.000002 -0.000001 -22.003618 8.386303 -7.947361 5.114460 35.296802 -5.364133 -11.053549 36.730319 17.083621 -0.000002 0.000002 -0.000001 -1.439455 -7.401330 -15.091364 -13.928619 31.870090 28.872555 0.000002 124.644395 -0.000003 -39.352275 13.650467 -10.266738 25.237400 26.252297 -5.437985 12.894367 -31.993979 39.430043 -14.991753 -36.436679 -24.177768 0.000001 -0.000002 -0.000001 3.719346 -0.183965 21.600753 0.053850 -0.706998 8.712818 1.034224 -2.928286 38.897695 -0.000001 0.000001 -0.000002 -22.435688 7.957868 15.448961 19.676858 7.652184 0.051948 -6.987283 -4.811785 -13.895886 -0.109845 -0.000002 -0.000001 0.000000 0.000000 0.000000 -25.954314 -3.137707 -6.048449 23.058599 -0.504120 -3.956766 -6.053773 -11.644159 10.094063 0.870738 0.000006 0.000002 -0.000000 0.000001 -0.000000 
